<svg xmlns="http://www.w3.org/2000/svg" width="19.668" height="19.668" viewBox="0 0 19.668 19.668">
  <path id="Icon_awesome-phone-alt" data-name="Icon awesome-phone-alt" d="M19.107,13.9l-4.3-1.844a.922.922,0,0,0-1.076.265l-1.905,2.328A14.239,14.239,0,0,1,5.017,7.841L7.345,5.936A.92.92,0,0,0,7.61,4.86L5.766.558A.928.928,0,0,0,4.71.024l-4,.922a.922.922,0,0,0-.715.9A17.823,17.823,0,0,0,17.825,19.669a.922.922,0,0,0,.9-.715l.922-4A.933.933,0,0,0,19.107,13.9Z" transform="translate(0 0)" fill="#4bb1b9"/>
</svg>
